<svg xmlns="http://www.w3.org/2000/svg" height="800" width="1200" viewBox="-37.204725 -21.6056 322.44095 129.6336"><g fill-rule="evenodd"><path d="M13.603 42.2763c-.043 8.1975 5.9679 13.0844 15.56 10.8625v-21.725c-9.7134-2.9581-15.5193 3.0266-15.56 10.8625M29.4566.0001h13.2113v62.5334c-12.6635 2.0703-24.792 3.3834-33.4685-1.4681-11.1719-6.2463-12.07-26.0956-3.2297-34.9363 4.4822-4.4818 13.5057-7.6372 23.1935-5.5781V.881c-.0253-.4169-.0488-.8319.2934-.881m34.6428 13.7984H50.8882V0h13.2112zm158.5352 39.9275c14.4022 5.5969 15.9956-25.7788 1.4681-22.8997-9.0219 1.7881-8.7322 20.0769-1.4681 22.8997m.5872-33.7622c10.9984-1.176 19.296 3.6775 22.6062 11.1562 5.6482 12.7604-.3106 27.4022-9.3947 31.7072-4.708 2.2313-9.638 2.4438-14.0921 2.055-13.767-1.2006-22.4494-15.2306-17.615-30.8265.7565-2.441 1.6065-3.9341 2.0553-4.6972 2.9925-5.0881 8.0447-8.4969 16.4403-9.3947M82.3018 48.735c-3.654 6.141 5.5269 7.6122 11.4494 5.8719v-9.1013c-4.5506.6354-9.7303.3397-11.4494 3.2294m23.1928 14.3856c-10.913.6279-27.498 4.3454-33.4684-2.9356-3.5075-4.2781-3.1303-12.4378 0-16.441 4.0453-5.1724 12.876-6.3005 20.8444-7.0458.7234-1.7813.2356-4.6794-.5872-5.8722-7.2888-1.8566-14.5306 1.0203-19.6697 3.2293v-10.275c7.7619-3.5662 25.7406-7.3212 31.1197.8807 2.825 4.3078 1.7612 11.8206 1.7612 18.4956zm46.3865.5876H138.67V46.68c0-5.6066.9069-12.7157-2.0556-14.9729-2.32-1.7687-7.8241-.8812-11.1557 0v32.001h-13.2115V22.8997c13.5053-3.508 37.883-7.2693 39.634 9.6882.8635 8.3606-.6397 20.904 0 31.1203m19.67-14.0924c2.2231 3.5969 8.2431 4.9456 13.211 2.6422-.2729-6.871-.3682-13.9194-.2935-21.1382-11.4175-3.0165-18.2219 9.916-12.9175 18.496m33.175-27.8903c-1.176 3.5215-2.8969 6.4975-4.4037 9.6884-1.3616.305-2.5416-.5412-3.2297 0-.3013 14.311 3.0478 33.7116-2.6422 44.0372-3.426 6.2169-9.7334 10.2053-19.3766 10.8628-7.0247.479-12.4768-.6687-17.615-2.6422V71.3411c6.0266 3.5187 21.255 6.3875 25.542-.881 1.2612-2.1384 1.1812-4.3487 1.7612-7.633-2.76.145-5.4394 1.423-8.8072 1.468-13.846.1838-22.4119-10.8409-19.0832-26.1293 1.2875-5.9138 4.7525-10.6753 9.395-13.5047 9.642-5.8766 24.4629-5.4303 38.4594-2.9356"/><path d="M64.0994 20.7855c-.015 9.7284-.0128 16.719-.0137 28.5378-.5613 11.6147-.4306 20.8638-4.6834 26.4213-.8388 1.0959-2.62 2.6947-4.1104 3.8168-1.2515.9422-3.6368 2.8528-4.9909 2.936-1.365.0838-4.8719-1.895-6.459-2.6425-2.0841-.9816-4.0107-2.285-6.165-2.9356 5.0253-3.1141 9.7956-5.4488 11.743-11.7435 1.6938-5.4744 1.4682-13.4072 1.4682-21.1381 0-7.6338.034-16.5088.034-23.2488l13.1772-.003z"/></g></svg>